<svg width="19" height="19" viewBox="0 0 19 19" fill="none" xmlns="http://www.w3.org/2000/svg">
<path d="M3.55 12.05H2.7C2.24913 12.05 1.81673 11.8709 1.49792 11.5521C1.17911 11.2333 1 10.8009 1 10.35V2.7C1 2.24913 1.17911 1.81673 1.49792 1.49792C1.81673 1.17911 2.24913 1 2.7 1H10.35C10.8009 1 11.2333 1.17911 11.5521 1.49792C11.8709 1.81673 12.05 2.24913 12.05 2.7V3.55M8.65 6.95H16.3C17.2389 6.95 18 7.71112 18 8.65V16.3C18 17.2389 17.2389 18 16.3 18H8.65C7.71112 18 6.95 17.2389 6.95 16.3V8.65C6.95 7.71112 7.71112 6.95 8.65 6.95Z" stroke="black" stroke-width="1.5" stroke-linecap="round" stroke-linejoin="round"/>
</svg>
