<svg width="17" height="18" viewBox="0 0 17 18" fill="none" xmlns="http://www.w3.org/2000/svg">
<path d="M1 4.2H2.66667M2.66667 4.2H16M2.66667 4.2V15.4C2.66667 15.8243 2.84226 16.2313 3.15482 16.5314C3.46738 16.8314 3.89131 17 4.33333 17H12.6667C13.1087 17 13.5326 16.8314 13.8452 16.5314C14.1577 16.2313 14.3333 15.8243 14.3333 15.4V4.2M5.16667 4.2V2.6C5.16667 2.17565 5.34226 1.76869 5.65482 1.46863C5.96738 1.16857 6.39131 1 6.83333 1H10.1667C10.6087 1 11.0326 1.16857 11.3452 1.46863C11.6577 1.76869 11.8333 2.17565 11.8333 2.6V4.2M6.83333 8.2V13M10.1667 8.2V13" stroke="#81858E" stroke-width="1.3" stroke-linecap="round" stroke-linejoin="round"/>
</svg>
